<?xml version="1.0" encoding="UTF-8" standalone="no"?>
<svg
   xmlns:dc="http://purl.org/dc/elements/1.1/"
   xmlns:cc="http://creativecommons.org/ns#"
   xmlns:rdf="http://www.w3.org/1999/02/22-rdf-syntax-ns#"
   xmlns:svg="http://www.w3.org/2000/svg"
   xmlns="http://www.w3.org/2000/svg"
   xmlns:sodipodi="http://sodipodi.sourceforge.net/DTD/sodipodi-0.dtd"
   xmlns:inkscape="http://www.inkscape.org/namespaces/inkscape"
   width="36.054752"
   height="42"
   viewBox="0 0 36.054751 41.999999"
   version="1.1"
   xml:space="preserve"
   style="clip-rule:evenodd;fill-rule:evenodd;stroke-linecap:round;stroke-linejoin:round;stroke-miterlimit:1.5"
   id="svg90"
   sodipodi:docname="electric_vehicle.svg"
   inkscape:version="0.92.2 5c3e80d, 2017-08-06"><metadata
     id="metadata96"><rdf:RDF><cc:Work
         rdf:about=""><dc:format>image/svg+xml</dc:format><dc:type
           rdf:resource="http://purl.org/dc/dcmitype/StillImage" /><dc:title></dc:title></cc:Work></rdf:RDF></metadata><defs
     id="defs94"><inkscape:perspective
       sodipodi:type="inkscape:persp3d"
       inkscape:vp_x="0 : 21 : 1"
       inkscape:vp_y="0 : 1000 : 0"
       inkscape:vp_z="36.054751 : 21 : 1"
       inkscape:persp3d-origin="18.027376 : 14 : 1"
       id="perspective4924" /></defs><sodipodi:namedview
     pagecolor="#ffffff"
     bordercolor="#666666"
     borderopacity="1"
     objecttolerance="10"
     gridtolerance="10"
     guidetolerance="10"
     inkscape:pageopacity="0"
     inkscape:pageshadow="2"
     inkscape:window-width="1595"
     inkscape:window-height="931"
     id="namedview92"
     showgrid="false"
     inkscape:zoom="7.4791667"
     inkscape:cx="17.879604"
     inkscape:cy="23.571127"
     inkscape:window-x="0"
     inkscape:window-y="0"
     inkscape:window-maximized="0"
     inkscape:current-layer="g16"
     inkscape:snap-grids="false"
     inkscape:snap-to-guides="false"
     inkscape:snap-nodes="false"
     inkscape:snap-global="false"
     fit-margin-top="0"
     fit-margin-left="0"
     fit-margin-right="0"
     fit-margin-bottom="0" /><g
     transform="matrix(0.13792461,0,0,0.13889267,0.6221282,2.062143)"
     id="g12"
     style="stroke-width:7.58594513;stroke-miterlimit:4;stroke-dasharray:none"><path
       d="m 164.101,83.216 c 0,-10.014 -9.10528,-13.971895 -18.273,-18.145 -12.86667,-5.85685 -26.07009,-5.694457 -39.583,0 -9.283654,3.912211 -18.273,8.131 -18.273,18.145 v 104.105 c 0,10.015 8.188,18.146 18.273,18.146 h 39.583 c 10.085,0 18.273,-8.131 18.273,-18.146 z"
       style="fill:#ebebeb;fill-opacity:0.52548996;stroke:#000000;stroke-width:7.58594513;stroke-miterlimit:4;stroke-dasharray:none"
       id="path10"
       inkscape:connector-curvature="0"
       sodipodi:nodetypes="sssssssss" /></g><g
     transform="matrix(0.0705884,0,0,0.07108413,9.0992436,13.032109)"
     id="g16"
     style="stroke-width:14.82235622;stroke-miterlimit:4;stroke-dasharray:none"><path
       inkscape:connector-curvature="0"
       id="path4988"
       style="fill:#ebebeb;fill-opacity:0.52548996;stroke:#000000;stroke-width:14.1171492;stroke-linejoin:miter;stroke-miterlimit:4;stroke-dasharray:none"
       d="m 167.5272,52.433362 c 0.4173,-2.642967 -8.92501,-4.847466 -19.91776,-4.847466 h -43.14588 c -10.992755,0 -20.363852,2.20914 -19.917759,4.847466 L 91.6266,94.311328 c 0.446137,2.638589 8.925,4.847733 19.91776,4.847733 h 29.45296 c 10.99275,0 19.50042,-2.204497 19.91776,-4.847733 z"
       sodipodi:nodetypes="sssssssss" /><path
       sodipodi:nodetypes="sssssssss"
       d="m 84.54488,215.55363 c -0.61901,2.60368 8.92501,4.84747 19.91776,4.84747 h 43.14588 c 10.99275,0 20.57809,-2.25382 19.91776,-4.84747 l -7.0808,-27.81182 c -0.6604,-2.5939 -8.925,-4.84773 -19.91776,-4.84773 h -29.45296 c -10.99275,0 -19.29868,2.24379 -19.91776,4.84773 z"
       style="fill:#ebebeb;fill-opacity:0.52548996;stroke:#000000;stroke-width:14.1171492;stroke-linejoin:miter;stroke-miterlimit:4;stroke-dasharray:none"
       id="path5014"
       inkscape:connector-curvature="0" /><path
       style="fill:none;stroke:#000000;stroke-width:14.1171492;stroke-linecap:butt;stroke-linejoin:miter;stroke-miterlimit:4;stroke-dasharray:none;stroke-opacity:1"
       d="M 92.08933,95.292701 V 186.39928"
       id="path5019"
       inkscape:connector-curvature="0" /><path
       inkscape:connector-curvature="0"
       id="path5041"
       d="M 159.39234,95.292701 V 186.39928"
       style="fill:none;stroke:#000000;stroke-width:14.1171492;stroke-linecap:butt;stroke-linejoin:miter;stroke-miterlimit:4;stroke-dasharray:none;stroke-opacity:1" /></g><g
     transform="matrix(0,0.147476,-0.1481243,0,32.653425,3.554684)"
     id="g60"
     style="stroke-width:7.1038928;stroke-miterlimit:4;stroke-dasharray:none;stroke:#616161;stroke-opacity:1"><path
       d="M 25.833,53.431 C 24.929,37.453 37.235,25.498 52.257,25.209"
       style="fill:none;stroke:#616161;stroke-width:7.1038928;stroke-linejoin:miter;stroke-miterlimit:4;stroke-dasharray:none;stroke-opacity:1"
       id="path58"
       inkscape:connector-curvature="0" /></g><g
     transform="matrix(0,0.147476,-0.1481243,0,32.674332,0.71891547)"
     id="g64"
     style="stroke-width:7.1038928;stroke-miterlimit:4;stroke-dasharray:none;stroke:#9e9e9e;stroke-opacity:1"><path
       d="M 25.72,53.515 C 25.341,20.91 52.109,5.769 71.379,5.98"
       style="fill:none;stroke:#9e9e9e;stroke-width:7.1038928;stroke-linejoin:miter;stroke-miterlimit:4;stroke-dasharray:none;stroke-opacity:1"
       id="path62"
       inkscape:connector-curvature="0" /></g><g
     transform="matrix(0.147476,0,0,0.1481243,3.5490278,3.3355901)"
     id="g68"
     style="stroke-width:7.1038928;stroke-miterlimit:4;stroke-dasharray:none;stroke:#616161;stroke-opacity:1"><path
       d="M 25.833,53.431 C 24.929,37.453 37.235,25.498 52.257,25.209"
       style="fill:none;stroke:#616161;stroke-width:7.1038928;stroke-linejoin:miter;stroke-miterlimit:4;stroke-dasharray:none;stroke-opacity:1"
       id="path66"
       inkscape:connector-curvature="0" /></g><g
     transform="matrix(0.147476,0,0,0.1481243,0.7132579,3.3146288)"
     id="g72"
     style="stroke-width:7.1038928;stroke-miterlimit:4;stroke-dasharray:none;stroke:#9e9e9e;stroke-opacity:1"><path
       d="M 25.72,53.515 C 25.341,20.91 52.109,5.769 71.379,5.98"
       style="fill:none;stroke:#9e9e9e;stroke-width:7.1038928;stroke-linejoin:miter;stroke-miterlimit:4;stroke-dasharray:none;stroke-opacity:1"
       id="path70"
       inkscape:connector-curvature="0" /></g><g
     transform="matrix(0,-0.147476,0.1481243,0,3.3637089,38.424947)"
     id="g76"
     style="stroke-width:7.1038928;stroke-miterlimit:4;stroke-dasharray:none;stroke:#616161;stroke-opacity:1"><path
       d="M 25.833,53.431 C 24.929,37.453 37.235,25.498 52.257,25.209"
       style="fill:none;stroke:#616161;stroke-width:7.1038928;stroke-linejoin:miter;stroke-miterlimit:4;stroke-dasharray:none;stroke-opacity:1"
       id="path74"
       inkscape:connector-curvature="0" /></g><g
     transform="matrix(0,-0.147476,0.1481243,0,3.3427497,41.260759)"
     id="g80"
     style="stroke-width:7.1038928;stroke-miterlimit:4;stroke-dasharray:none;stroke:#9e9e9e;stroke-opacity:1"><path
       d="M 25.72,53.515 C 25.341,20.91 52.109,5.769 71.379,5.98"
       style="fill:none;stroke:#9e9e9e;stroke-width:7.1038928;stroke-linejoin:miter;stroke-miterlimit:4;stroke-dasharray:none;stroke-opacity:1"
       id="path78"
       inkscape:connector-curvature="0" /></g><g
     transform="matrix(-0.147476,0,0,-0.1481243,32.245032,38.604502)"
     id="g84"
     style="stroke-width:7.1038928;stroke-miterlimit:4;stroke-dasharray:none;stroke:#616161;stroke-opacity:1"><path
       d="M 25.833,53.431 C 24.929,37.453 37.235,25.498 52.257,25.209"
       style="fill:none;stroke:#616161;stroke-width:7.1038928;stroke-linejoin:miter;stroke-miterlimit:4;stroke-dasharray:none;stroke-opacity:1"
       id="path82"
       inkscape:connector-curvature="0" /></g><g
     transform="matrix(-0.147476,0,0,-0.1481243,35.080847,38.625497)"
     id="g88"
     style="stroke-width:7.1038928;stroke-miterlimit:4;stroke-dasharray:none;stroke:#9e9e9e;stroke-opacity:1"><path
       d="M 25.72,53.515 C 25.341,20.91 52.109,5.769 71.379,5.98"
       style="fill:none;stroke:#9e9e9e;stroke-width:7.1038928;stroke-linejoin:miter;stroke-miterlimit:4;stroke-dasharray:none;stroke-opacity:1"
       id="path86"
       inkscape:connector-curvature="0" /></g><rect
     style="fill:#000000;fill-opacity:1;stroke-width:0.69484574"
     transform="rotate(-45)"
     ry="0.55243921"
     y="23.355392"
     x="4.3599043"
     height="2.084537"
     width="1.3896915"
     id="rect3791" /><rect
     id="rect3793"
     width="1.3896915"
     height="2.084537"
     x="-21.101509"
     y="0.021481724"
     ry="0.55243921"
     transform="rotate(-135)"
     style="fill:#000000;stroke-width:0.45432463;stroke-miterlimit:4;stroke-dasharray:none;fill-opacity:1" /><rect
     id="rect3787"
     width="1.3896914"
     height="2.084537"
     x="2.9878573"
     y="29.043634"
     ry="0.55243915"
     transform="rotate(-45)"
     style="fill:#320000;stroke-width:0.69484568;fill-opacity:1" /><rect
     ry="0.55243915"
     y="3.4501851"
     x="21.179314"
     height="2.084537"
     width="1.3896914"
     id="rect3789"
     transform="rotate(45)"
     style="fill:#000000;stroke-width:0.69484568;fill-opacity:1" /></svg>