<?xml version="1.0" encoding="UTF-8" standalone="no"?>
<svg
   xmlns:dc="http://purl.org/dc/elements/1.1/"
   xmlns:cc="http://creativecommons.org/ns#"
   xmlns:rdf="http://www.w3.org/1999/02/22-rdf-syntax-ns#"
   xmlns:svg="http://www.w3.org/2000/svg"
   xmlns="http://www.w3.org/2000/svg"
   xmlns:sodipodi="http://sodipodi.sourceforge.net/DTD/sodipodi-0.dtd"
   xmlns:inkscape="http://www.inkscape.org/namespaces/inkscape"
   width="36.054752"
   height="42"
   viewBox="0 0 36.054751 41.999999"
   version="1.1"
   xml:space="preserve"
   style="clip-rule:evenodd;fill-rule:evenodd;stroke-linecap:round;stroke-linejoin:round;stroke-miterlimit:1.5"
   id="svg90"
   sodipodi:docname="electric_vehicle.svg"
   inkscape:version="0.92.2 5c3e80d, 2017-08-06"><metadata
     id="metadata96"><rdf:RDF><cc:Work
         rdf:about=""><dc:format>image/svg+xml</dc:format><dc:type
           rdf:resource="http://purl.org/dc/dcmitype/StillImage" /><dc:title></dc:title></cc:Work></rdf:RDF></metadata><defs
     id="defs94" /><sodipodi:namedview
     pagecolor="#ffffff"
     bordercolor="#666666"
     borderopacity="1"
     objecttolerance="10"
     gridtolerance="10"
     guidetolerance="10"
     inkscape:pageopacity="0"
     inkscape:pageshadow="2"
     inkscape:window-width="1595"
     inkscape:window-height="931"
     id="namedview92"
     showgrid="false"
     inkscape:zoom="14.958333"
     inkscape:cx="17.996596"
     inkscape:cy="20.964222"
     inkscape:window-x="0"
     inkscape:window-y="0"
     inkscape:window-maximized="0"
     inkscape:current-layer="svg90"
     inkscape:snap-grids="false"
     inkscape:snap-to-guides="false"
     inkscape:snap-nodes="false"
     inkscape:snap-global="false"
     fit-margin-top="0"
     fit-margin-left="0"
     fit-margin-right="0"
     fit-margin-bottom="0" /><g
     transform="matrix(0.13792461,0,0,0.13889267,0.6221282,2.062143)"
     id="g12"
     style="stroke-width:7.58594513;stroke-miterlimit:4;stroke-dasharray:none"><path
       d="m 164.101,83.216 c 0,-10.014 -8.188,-18.145 -18.273,-18.145 h -39.583 c -10.085,0 -18.273,8.131 -18.273,18.145 v 104.105 c 0,10.015 8.188,18.146 18.273,18.146 h 39.583 c 10.085,0 18.273,-8.131 18.273,-18.146 z"
       style="fill:#ebebeb;fill-opacity:0.52548996;stroke:#000000;stroke-width:7.58594513;stroke-miterlimit:4;stroke-dasharray:none"
       id="path10"
       inkscape:connector-curvature="0" /></g><g
     transform="matrix(0.0705884,0,0,0.07108413,9.0992436,13.032109)"
     id="g16"
     style="stroke-width:14.82235622;stroke-miterlimit:4;stroke-dasharray:none"><path
       d="m 164.101,83.216 c 0,-10.014 -8.188,-18.145 -18.273,-18.145 h -39.583 c -10.085,0 -18.273,8.131 -18.273,18.145 v 104.105 c 0,10.015 8.188,18.146 18.273,18.146 h 39.583 c 10.085,0 18.273,-8.131 18.273,-18.146 z"
       style="fill:#ebebeb;fill-opacity:0.52548996;stroke:#000000;stroke-width:14.82235622;stroke-linejoin:miter;stroke-miterlimit:4;stroke-dasharray:none"
       id="path14"
       inkscape:connector-curvature="0" /></g><g
     transform="matrix(0.14951049,0,0,0.14725992,0.0056814,0.19629747)"
     id="g36"><rect
       x="-0.037999999"
       y="-1.3329999"
       width="80.262001"
       height="285.20999"
       style="fill-opacity:0.40784302"
       id="rect34" /></g><g
     transform="matrix(0.14951049,0,0,0.04207425,0.0056814,0.05611747)"
     id="g40"><rect
       x="-0.037999999"
       y="-1.3329999"
       width="80.262001"
       height="285.20999"
       style="fill-opacity:0.40784302"
       id="rect38" /></g><g
     transform="matrix(0.14951049,0,0,0.04207425,0.0056814,30.055246)"
     id="g44"><rect
       x="-0.037999999"
       y="-1.3329999"
       width="80.262001"
       height="285.20999"
       style="fill-opacity:0.40784302"
       id="rect42" /></g><g
     transform="matrix(0.14951049,0,0,0.04207425,24.013163,30.056037)"
     id="g48"><rect
       x="-0.037999999"
       y="-1.3329999"
       width="80.262001"
       height="285.20999"
       style="fill-opacity:0.40784302"
       id="rect46" /></g><g
     transform="matrix(0.14951049,0,0,0.04207425,24.060423,0.05611747)"
     id="g52"><rect
       x="-0.037999999"
       y="-1.3329999"
       width="80.262001"
       height="285.20999"
       style="fill-opacity:0.40784302"
       id="rect50" /></g><g
     transform="matrix(0.14951049,0,0,0.14725992,24.011406,0.19629747)"
     id="g56"><rect
       x="-0.037999999"
       y="-1.3329999"
       width="80.262001"
       height="285.20999"
       style="fill-opacity:0.47451004"
       id="rect54" /></g><g
     transform="matrix(0,0.147476,-0.1481243,0,32.653425,3.554684)"
     id="g60"
     style="stroke-width:7.1038928;stroke-miterlimit:4;stroke-dasharray:none"><path
       d="M 25.833,53.431 C 24.929,37.453 37.235,25.498 52.257,25.209"
       style="fill:none;stroke:#ff0000;stroke-width:7.1038928;stroke-linejoin:miter;stroke-miterlimit:4;stroke-dasharray:none"
       id="path58"
       inkscape:connector-curvature="0" /></g><g
     transform="matrix(0,0.147476,-0.1481243,0,32.674332,0.71891547)"
     id="g64"
     style="stroke-width:7.1038928;stroke-miterlimit:4;stroke-dasharray:none"><path
       d="M 25.72,53.515 C 25.341,20.91 52.109,5.769 71.379,5.98"
       style="fill:none;stroke:#ff0000;stroke-width:7.1038928;stroke-linejoin:miter;stroke-miterlimit:4;stroke-dasharray:none"
       id="path62"
       inkscape:connector-curvature="0" /></g><g
     transform="matrix(0.147476,0,0,0.1481243,3.5490278,3.3355901)"
     id="g68"
     style="stroke-width:7.1038928;stroke-miterlimit:4;stroke-dasharray:none"><path
       d="M 25.833,53.431 C 24.929,37.453 37.235,25.498 52.257,25.209"
       style="fill:none;stroke:#ff0000;stroke-width:7.1038928;stroke-linejoin:miter;stroke-miterlimit:4;stroke-dasharray:none"
       id="path66"
       inkscape:connector-curvature="0" /></g><g
     transform="matrix(0.147476,0,0,0.1481243,0.7132579,3.3146288)"
     id="g72"
     style="stroke-width:7.1038928;stroke-miterlimit:4;stroke-dasharray:none"><path
       d="M 25.72,53.515 C 25.341,20.91 52.109,5.769 71.379,5.98"
       style="fill:none;stroke:#ff0000;stroke-width:7.1038928;stroke-linejoin:miter;stroke-miterlimit:4;stroke-dasharray:none"
       id="path70"
       inkscape:connector-curvature="0" /></g><g
     transform="matrix(0,-0.147476,0.1481243,0,3.3637089,38.424947)"
     id="g76"
     style="stroke-width:7.1038928;stroke-miterlimit:4;stroke-dasharray:none"><path
       d="M 25.833,53.431 C 24.929,37.453 37.235,25.498 52.257,25.209"
       style="fill:none;stroke:#ff0000;stroke-width:7.1038928;stroke-linejoin:miter;stroke-miterlimit:4;stroke-dasharray:none"
       id="path74"
       inkscape:connector-curvature="0" /></g><g
     transform="matrix(0,-0.147476,0.1481243,0,3.3427497,41.260759)"
     id="g80"
     style="stroke-width:7.1038928;stroke-miterlimit:4;stroke-dasharray:none"><path
       d="M 25.72,53.515 C 25.341,20.91 52.109,5.769 71.379,5.98"
       style="fill:none;stroke:#ff0000;stroke-width:7.1038928;stroke-linejoin:miter;stroke-miterlimit:4;stroke-dasharray:none"
       id="path78"
       inkscape:connector-curvature="0" /></g><g
     transform="matrix(-0.147476,0,0,-0.1481243,32.245032,38.604502)"
     id="g84"
     style="stroke-width:7.1038928;stroke-miterlimit:4;stroke-dasharray:none"><path
       d="M 25.833,53.431 C 24.929,37.453 37.235,25.498 52.257,25.209"
       style="fill:none;stroke:#ff0000;stroke-width:7.1038928;stroke-linejoin:miter;stroke-miterlimit:4;stroke-dasharray:none"
       id="path82"
       inkscape:connector-curvature="0" /></g><g
     transform="matrix(-0.147476,0,0,-0.1481243,35.080847,38.625497)"
     id="g88"
     style="stroke-width:7.1038928;stroke-miterlimit:4;stroke-dasharray:none"><path
       d="M 25.72,53.515 C 25.341,20.91 52.109,5.769 71.379,5.98"
       style="fill:none;stroke:#ff0000;stroke-width:7.1038928;stroke-linejoin:miter;stroke-miterlimit:4;stroke-dasharray:none"
       id="path86"
       inkscape:connector-curvature="0" /></g><rect
     style="fill:#ff0000;stroke-width:0.60334277"
     transform="rotate(-45)"
     ry="0.47968951"
     y="23.961269"
     x="4.7337928"
     height="1.8100283"
     width="1.2066855"
     id="rect3791" /><rect
     id="rect3793"
     width="1.2066855"
     height="1.8100283"
     x="-21.010006"
     y="-0.02749902"
     ry="0.47968951"
     transform="rotate(-135)"
     style="fill:#ff0000;stroke-width:0.39449546;stroke-miterlimit:4;stroke-dasharray:none" /><rect
     id="rect3787"
     width="1.2207749"
     height="1.8311623"
     x="2.9004185"
     y="29.170322"
     ry="0.48529038"
     transform="rotate(-45)"
     style="fill:#ff0000;stroke-width:0.61038744" /><rect
     ry="0.48529038"
     y="3.7487695"
     x="21.263771"
     height="1.8311623"
     width="1.2207749"
     id="rect3789"
     transform="rotate(45)"
     style="fill:#ff0000;stroke-width:0.61038744" /></svg>