<?xml version="1.0" encoding="UTF-8" standalone="no"?>
<svg
   xmlns:dc="http://purl.org/dc/elements/1.1/"
   xmlns:cc="http://creativecommons.org/ns#"
   xmlns:rdf="http://www.w3.org/1999/02/22-rdf-syntax-ns#"
   xmlns:svg="http://www.w3.org/2000/svg"
   xmlns="http://www.w3.org/2000/svg"
   xmlns:sodipodi="http://sodipodi.sourceforge.net/DTD/sodipodi-0.dtd"
   xmlns:inkscape="http://www.inkscape.org/namespaces/inkscape"
   width="36.054752"
   height="42"
   viewBox="0 0 36.054751 41.999999"
   version="1.1"
   xml:space="preserve"
   style="clip-rule:evenodd;fill-rule:evenodd;stroke-linecap:round;stroke-linejoin:round;stroke-miterlimit:1.5"
   id="svg90"
   sodipodi:docname="Vehicle-Other.svg"
   inkscape:version="0.92.2 5c3e80d, 2017-08-06"><metadata
     id="metadata96"><rdf:RDF><cc:Work
         rdf:about=""><dc:format>image/svg+xml</dc:format><dc:type
           rdf:resource="http://purl.org/dc/dcmitype/StillImage" /><dc:title></dc:title></cc:Work></rdf:RDF></metadata><defs
     id="defs94"><inkscape:perspective
       sodipodi:type="inkscape:persp3d"
       inkscape:vp_x="0 : 21 : 1"
       inkscape:vp_y="0 : 1000 : 0"
       inkscape:vp_z="36.054751 : 21 : 1"
       inkscape:persp3d-origin="18.027376 : 14 : 1"
       id="perspective4924" /></defs><sodipodi:namedview
     pagecolor="#ffffff"
     bordercolor="#666666"
     borderopacity="1"
     objecttolerance="10"
     gridtolerance="10"
     guidetolerance="10"
     inkscape:pageopacity="0"
     inkscape:pageshadow="2"
     inkscape:window-width="1155"
     inkscape:window-height="679"
     id="namedview92"
     showgrid="false"
     inkscape:zoom="5.2885695"
     inkscape:cx="9.9910249"
     inkscape:cy="18.222938"
     inkscape:window-x="693"
     inkscape:window-y="241"
     inkscape:window-maximized="0"
     inkscape:current-layer="svg90"
     inkscape:snap-grids="false"
     inkscape:snap-to-guides="false"
     inkscape:snap-nodes="false"
     inkscape:snap-global="false"
     fit-margin-top="0"
     fit-margin-left="0"
     fit-margin-right="0"
     fit-margin-bottom="0" /><g
     style="fill:none;stroke:#ffffff;stroke-width:7.58594513;stroke-miterlimit:4;stroke-dasharray:none;stroke-opacity:0.89108911"
     id="g5119"
     transform="matrix(0.16532323,0,0,0.15192423,-2.812263,0.22358747)"><path
       sodipodi:nodetypes="sssssssss"
       inkscape:connector-curvature="0"
       id="path5117"
       style="fill:none;fill-opacity:0.52548996;stroke:#ffffff;stroke-width:7.58594513;stroke-miterlimit:4;stroke-dasharray:none;stroke-opacity:0.89108911"
       d="m 162.88856,83.216 c -0.0582,-10.0138 -7.89284,-13.971895 -17.06056,-18.145 -12.86667,-5.85685 -26.07009,-5.694457 -39.583,0 -9.283654,3.912211 -17.002357,8.1312 -17.06054,18.145 L 88.579584,187.321 C 88.521396,197.3358 96.16,205.467 106.245,205.467 h 39.583 c 10.085,0 17.72362,-8.1312 17.66544,-18.146 z" /></g><rect
     id="rect3787"
     width="1.3896914"
     height="2.084537"
     x="2.9800072"
     y="29.078121"
     ry="0.55243915"
     transform="rotate(-45)"
     style="fill:#320000;fill-opacity:1;stroke-width:0.69484568" /><rect
     ry="0.55243915"
     y="3.4580352"
     x="21.2138"
     height="2.084537"
     width="1.3896914"
     id="rect3789"
     transform="rotate(45)"
     style="fill:#000000;fill-opacity:1;stroke-width:0.69484568" /><path
     sodipodi:nodetypes="sssssssss"
     inkscape:connector-curvature="0"
     id="path10"
     style="fill:#31e7f1;fill-opacity:0.87843138;stroke:#000000;stroke-width:1.04995394;stroke-miterlimit:4;stroke-dasharray:none"
     d="m 23.27453,13.650173 c 0,-1.390872 -1.255842,-1.940594 -2.520296,-2.520208 -1.774631,-0.813474 -3.595707,-0.790918 -5.45947,0 -1.280445,0.543377 -2.520297,1.129336 -2.520297,2.520208 v 14.459421 c 0,1.39101 1.129327,2.520346 2.520297,2.520346 h 5.45947 c 1.390969,0 2.520296,-1.129336 2.520296,-2.520346 z" /><g
     transform="matrix(0.0705884,0,0,0.07108413,9.1180789,13.062046)"
     id="g16"
     style="stroke-width:14.82235622;stroke-miterlimit:4;stroke-dasharray:none;fill:#e4fcfd;fill-opacity:0.87843138"><path
       d="m 164.101,83.216 c 0,-10.014 -8.188,-18.145 -18.273,-18.145 h -39.583 c -10.085,0 -18.273,8.131 -18.273,18.145 v 104.105 c 0,10.015 8.188,18.146 18.273,18.146 h 39.583 c 10.085,0 18.273,-8.131 18.273,-18.146 z"
       style="fill:#e4fcfd;fill-opacity:0.87843138;stroke:#000000;stroke-width:14.82235622;stroke-linejoin:miter;stroke-miterlimit:4;stroke-dasharray:none"
       id="path14"
       inkscape:connector-curvature="0" /></g><rect
     style="fill:#000000;fill-opacity:1;stroke-width:0.69484574"
     transform="rotate(-45)"
     ry="0.55243921"
     y="23.389879"
     x="4.3520541"
     height="2.084537"
     width="1.3896915"
     id="rect3791" /><rect
     id="rect3793"
     width="1.3896915"
     height="2.084537"
     x="-21.135996"
     y="0.013631579"
     ry="0.55243921"
     transform="rotate(-135)"
     style="fill:#000000;fill-opacity:1;stroke-width:0.45432463;stroke-miterlimit:4;stroke-dasharray:none" /></svg>